<?xml version="1.0" standalone="no"?>
<svg xmlns="http://www.w3.org/2000/svg" viewBox="0 0 105 65" width="105" height="65"><g fill="#305699" color="#305699" transform="translate(35.15 0) scale(0.7843138) "><svg width="44.0" height="51.0" x="0.0" y="0.0" viewBox="0 0 44 51"><path fill="currentColor" fill-rule="evenodd" d="M22 0L0 12.571v25.143l22 12.572 21.994-12.568.006-.01V12.571L22 0zM6.354 13.778L22 4.84l15.645 8.938-4.231 2.419L22 9.678l-11.411 6.52-4.235-2.42zm17.764 10.158v-8.21L31.3 19.83v8.208l-7.182-4.101zm-11.416-4.107l7.18-4.102v8.207l-7.18 4.103v-8.208zm11.416 19.57l11.415-6.522V19.826l4.233-2.42v17.89l-15.648 8.941v-4.838zM4.233 35.296v-17.89l4.233 2.42v13.049l11.416 6.524v4.838l-15.649-8.94zm10.583-3.63l7.182-4.104 7.183 4.104L22 35.768l-7.184-4.102z"></path></svg></g><path fill="#0b005d" fill-rule="nonzero" d="M11.02 8.54L11.02 16.03L9.79 16.03L9.29 14.23Q8.06 16.32 5.64 16.32L5.64 16.32Q3.43 16.32 2.20 15.42Q0.96 14.52 0.48 12.86Q0 11.21 0 8.69L0 8.69Q0 6.12 0.52 4.45Q1.03 2.78 2.32 1.91Q3.60 1.03 5.88 1.03L5.88 1.03Q8.30 1.03 9.36 2.03Q10.42 3.02 10.66 4.97L10.66 4.97L8.69 5.33Q8.40 2.04 5.88 2.04L5.88 2.04Q4.51 2.04 3.77 2.76Q3.02 3.48 2.74 4.90Q2.45 6.31 2.45 8.69L2.45 8.69Q2.45 10.99 2.71 12.41Q2.98 13.82 3.66 14.56Q4.34 15.29 5.64 15.29L5.64 15.29Q8.78 15.29 8.90 10.97L8.90 10.97L8.90 9.74L6.22 9.74L6.22 8.54L11.02 8.54ZM23.74 10.42L16.30 10.42L16.30 10.46Q16.30 13.01 16.91 14.06Q17.52 15.12 19.01 15.12L19.01 15.12Q21.46 15.12 21.58 12.60L21.58 12.60L23.57 12.70Q23.40 14.38 22.34 15.35Q21.29 16.32 18.94 16.32L18.94 16.32Q16.22 16.32 15.05 14.82Q13.87 13.32 13.87 10.27L13.87 10.27Q13.87 7.54 14.99 5.88Q16.10 4.22 18.91 4.22L18.91 4.22Q21.62 4.22 22.68 5.87Q23.74 7.51 23.74 10.18L23.74 10.18L23.74 10.42ZM18.86 5.42Q17.59 5.42 17.02 6.36Q16.44 7.30 16.32 9.22L16.32 9.22L21.38 9.22Q21.31 7.34 20.75 6.38Q20.18 5.42 18.86 5.42L18.86 5.42ZM31.44 9.41Q33.22 9.89 34.02 10.63Q34.82 11.38 34.82 12.79L34.82 12.79Q34.82 14.42 33.68 15.37Q32.54 16.32 30.46 16.32L30.46 16.32Q28.20 16.32 27.10 15.40Q25.99 14.47 25.75 12.72L25.75 12.72L27.74 12.48Q27.86 13.73 28.54 14.42Q29.21 15.12 30.46 15.12L30.46 15.12Q31.46 15.12 32.11 14.57Q32.76 14.02 32.76 13.30L32.76 13.30Q32.76 12.58 32.18 12.14Q31.61 11.71 30.29 11.38L30.29 11.38L29.14 11.04Q27.60 10.63 26.78 9.84Q25.97 9.05 25.97 7.61L25.97 7.61Q25.97 6.05 27.12 5.14Q28.27 4.22 30.31 4.22L30.31 4.22Q32.45 4.22 33.48 5.12Q34.51 6.02 34.73 7.75L34.73 7.75L32.74 7.92Q32.62 6.74 32.00 6.08Q31.39 5.42 30.31 5.42L30.31 5.42Q29.18 5.42 28.61 5.88Q28.03 6.34 28.03 7.08L28.03 7.08Q28.03 7.90 28.60 8.33Q29.16 8.76 30.38 9.10L30.38 9.10L31.44 9.41ZM42.82 14.52L43.13 15.62Q41.86 16.32 40.68 16.32L40.68 16.32Q39.48 16.32 38.89 15.88Q38.30 15.43 38.16 14.81Q38.02 14.18 38.02 13.27L38.02 13.27L38.02 5.74L36.14 5.74L36.14 4.51L38.02 4.51L38.02 2.64L40.46 1.73L40.46 4.51L42.91 4.51L42.91 5.74L40.46 5.74L40.46 13.56Q40.46 14.35 40.67 14.65Q40.87 14.95 41.35 14.95L41.35 14.95Q42.02 14.95 42.82 14.52L42.82 14.52ZM46.20 3Q45.58 3 45.14 2.56Q44.71 2.11 44.71 1.51L44.71 1.51Q44.71 0.89 45.14 0.44Q45.58 0 46.20 0L46.20 0Q46.82 0 47.27 0.44Q47.71 0.89 47.71 1.51L47.71 1.51Q47.71 2.11 47.26 2.56Q46.80 3 46.20 3L46.20 3ZM47.35 4.51L47.35 16.03L44.98 16.03L44.98 4.51L47.35 4.51ZM55.63 16.32Q52.73 16.32 51.59 14.65Q50.45 12.98 50.45 10.27L50.45 10.27Q50.45 7.54 51.59 5.88Q52.73 4.22 55.63 4.22L55.63 4.22Q58.51 4.22 59.66 5.89Q60.82 7.56 60.82 10.27L60.82 10.27Q60.82 16.32 55.63 16.32L55.63 16.32ZM55.63 15.12Q57.22 15.12 57.80 13.85Q58.39 12.58 58.39 10.27L58.39 10.27Q58.39 7.94 57.82 6.68Q57.24 5.42 55.63 5.42L55.63 5.42Q54.02 5.42 53.45 6.67Q52.87 7.92 52.87 10.27L52.87 10.27Q52.87 12.60 53.45 13.86Q54.02 15.12 55.63 15.12L55.63 15.12ZM69.79 4.22Q73.49 4.22 73.49 7.90L73.49 7.90L73.49 16.03L71.06 16.03L71.06 8.09Q71.06 6.79 70.61 6.18Q70.15 5.57 69.17 5.57L69.17 5.57Q67.70 5.57 66.29 6.67L66.29 6.67L66.29 16.03L63.86 16.03L63.86 4.51L64.92 4.51L65.88 5.71Q66.74 5.04 67.79 4.63Q68.83 4.22 69.79 4.22L69.79 4.22ZM79.51 16.32Q78.05 16.32 77.20 15.52Q76.34 14.71 76.34 13.32L76.34 13.32Q76.34 11.83 77.41 10.98Q78.48 10.13 80.66 9.74L80.66 9.74L83.33 9.31L83.33 8.14Q83.33 5.42 81.26 5.42L81.26 5.42Q80.04 5.42 79.49 6.12Q78.94 6.82 78.86 8.26L78.86 8.26L76.85 8.04Q76.99 6.14 78.00 5.18Q79.01 4.22 81.31 4.22L81.31 4.22Q83.54 4.22 84.65 5.22Q85.75 6.22 85.75 8.23L85.75 8.23L85.75 16.03L84.22 16.03L83.47 14.35Q82.73 15.31 81.70 15.82Q80.66 16.32 79.51 16.32L79.51 16.32ZM80.38 15.05Q81.19 15.05 82.00 14.57Q82.80 14.09 83.33 13.44L83.33 13.44L83.33 10.30L80.98 10.75Q79.78 11.02 79.16 11.59Q78.55 12.17 78.55 13.15L78.55 13.15Q78.55 14.02 79.04 14.53Q79.54 15.05 80.38 15.05L80.38 15.05ZM91.87 0.50L91.87 16.03L89.45 16.03L89.45 0.82L91.87 0.50ZM104.81 10.42L97.37 10.42L97.37 10.46Q97.37 13.01 97.98 14.06Q98.59 15.12 100.08 15.12L100.08 15.12Q102.53 15.12 102.65 12.60L102.65 12.60L104.64 12.70Q104.47 14.38 103.42 15.35Q102.36 16.32 100.01 16.32L100.01 16.32Q97.30 16.32 96.12 14.82Q94.94 13.32 94.94 10.27L94.94 10.27Q94.94 7.54 96.06 5.88Q97.18 4.22 99.98 4.22L99.98 4.22Q102.70 4.22 103.75 5.87Q104.81 7.51 104.81 10.18L104.81 10.18L104.81 10.42ZM99.94 5.42Q98.66 5.42 98.09 6.36Q97.51 7.30 97.39 9.22L97.39 9.22L102.46 9.22Q102.38 7.34 101.82 6.38Q101.26 5.42 99.94 5.42L99.94 5.42Z" transform="translate(0, 48)"></path></svg>